<svg width="16" height="16" viewBox="0 0 16 16" fill="none" xmlns="http://www.w3.org/2000/svg">
<path d="M14.8125 2.01562L9.1875 7.64062L14.7656 13.2188C15.2344 13.6406 15.2344 14.3438 14.7656 14.7656C14.3438 15.2344 13.6406 15.2344 13.2188 14.7656L7.59375 9.1875L2.01563 14.7656C1.59375 15.2344 0.890625 15.2344 0.46875 14.7656C0 14.3438 0 13.6406 0.46875 13.1719L6.04688 7.59375L0.46875 2.01562C0 1.59375 0 0.890625 0.46875 0.421875C0.890625 0 1.59375 0 2.0625 0.421875L7.64062 6.04688L13.2188 0.46875C13.6406 0 14.3438 0 14.8125 0.46875C15.2344 0.890625 15.2344 1.59375 14.8125 2.01562Z" fill="black"/>
</svg>
