<svg width="13" height="13" viewBox="0 0 13 13" fill="none" xmlns="http://www.w3.org/2000/svg">
<path d="M12.3438 1.67969L7.65625 6.36719L12.3047 11.0156C12.6953 11.3672 12.6953 11.9531 12.3047 12.3047C11.9531 12.6953 11.3672 12.6953 11.0156 12.3047L6.32813 7.65625L1.67969 12.3047C1.32813 12.6953 0.742188 12.6953 0.390625 12.3047C0 11.9531 0 11.3672 0.390625 10.9766L5.03906 6.32812L0.390625 1.67969C0 1.32812 0 0.742188 0.390625 0.351562C0.742188 0 1.32812 0 1.71875 0.351562L6.36719 5.03906L11.0156 0.390625C11.3672 0 11.9531 0 12.3438 0.390625C12.6953 0.742187 12.6953 1.32812 12.3438 1.67969Z" fill="black"/>
</svg>
