<svg width="21" height="20" viewBox="0 0 21 20" fill="none" xmlns="http://www.w3.org/2000/svg">
<path d="M10.4688 18.125C10.7422 18.125 11.5234 17.8516 12.3047 16.25C12.6562 15.5469 12.9688 14.7266 13.1641 13.75H7.73438C7.96875 14.7266 8.24219 15.5469 8.59375 16.25C9.41406 17.8516 10.1562 18.125 10.4688 18.125ZM7.42188 11.875H13.4766C13.5547 11.2891 13.5938 10.6641 13.5938 10C13.5938 9.375 13.5547 8.75 13.4766 8.125H7.42188C7.34375 8.75 7.34375 9.375 7.34375 10C7.34375 10.6641 7.34375 11.2891 7.42188 11.875ZM7.73438 6.25L13.1641 6.25C12.9688 5.3125 12.6562 4.49219 12.3047 3.78906C11.5234 2.1875 10.7422 1.875 10.4688 1.875C10.1562 1.875 9.41406 2.1875 8.59375 3.78906C8.24219 4.49219 7.96875 5.3125 7.73438 6.25ZM15.3516 8.125C15.4297 8.75 15.4297 9.375 15.4297 10C15.4297 10.6641 15.4297 11.2891 15.3516 11.875H18.3594C18.5156 11.2891 18.5938 10.6641 18.5938 10C18.5938 9.375 18.5156 8.75 18.3594 8.125H15.3516ZM17.6562 6.25C16.8359 4.64844 15.4688 3.35937 13.8281 2.61719C14.375 3.63281 14.8047 4.88281 15.0781 6.25H17.6562ZM5.82031 6.25C6.09375 4.88281 6.52344 3.63281 7.07031 2.61719C5.42969 3.35938 4.0625 4.64844 3.24219 6.25H5.82031ZM2.53906 8.125C2.42188 8.75 2.34375 9.375 2.34375 10C2.34375 10.6641 2.38281 11.2891 2.53906 11.875H5.54688C5.46875 11.2891 5.46875 10.6641 5.46875 10C5.46875 9.375 5.46875 8.75 5.54688 8.125H2.53906ZM13.8281 17.4219C15.4688 16.6797 16.8359 15.3906 17.6562 13.75H15.0781C14.8047 15.1562 14.375 16.4062 13.8281 17.4219ZM7.07031 17.4219C6.52344 16.4062 6.09375 15.1562 5.82031 13.75H3.24219C4.0625 15.3906 5.42969 16.6797 7.07031 17.4219ZM10.4688 20C6.875 20 3.59375 18.125 1.79688 15C0 11.9141 0 8.125 1.79688 5C3.59375 1.91406 6.875 0 10.4688 0C14.0234 0 17.3047 1.91406 19.1016 5C20.8984 8.125 20.8984 11.9141 19.1016 15C17.3047 18.125 14.0234 20 10.4688 20Z" fill="black"/>
</svg>
