<?xml version="1.0" encoding="utf-8"?>
<!-- Generator: Adobe Illustrator 28.3.0, SVG Export Plug-In . SVG Version: 6.00 Build 0)  -->
<svg version="1.1" id="Layer_1" xmlns="http://www.w3.org/2000/svg" xmlns:xlink="http://www.w3.org/1999/xlink" x="0px" y="0px"
	 viewBox="0 0 645.98 257.7" style="enable-background:new 0 0 645.98 257.7;" xml:space="preserve">
<style type="text/css">
	.st0{fill:#FFFFFF;}
</style>
<g>
	<polygon class="st0" points="12.66,248.51 12.66,207.35 20.28,207.35 36.1,234.76 36.1,207.35 43.39,207.35 43.39,248.51 
		35.53,248.51 19.95,221.73 19.95,248.51 	"/>
	<path class="st0" d="M64.54,239.11l7.4,1.35c-0.96,2.86-2.45,5.04-4.49,6.54c-2.05,1.49-4.6,2.24-7.67,2.24
		c-4.85,0-8.44-1.7-10.76-5.09c-1.84-2.72-2.76-6.15-2.76-10.29c0-4.95,1.22-8.83,3.65-11.64c2.42-2.8,5.49-4.2,9.22-4.2
		c4.19,0,7.48,1.47,9.9,4.42c2.41,2.95,3.56,7.47,3.47,13.55H53.87c0.07,2.33,0.66,4.15,1.8,5.46c1.13,1.3,2.52,1.96,4.22,1.96
		c1.15,0,2.11-0.34,2.89-1.02C63.55,241.7,64.14,240.61,64.54,239.11 M65.1,231.17c-0.06-2.32-0.62-4.08-1.66-5.29
		c-1.05-1.21-2.33-1.82-3.84-1.82c-1.63,0-2.98,0.64-4.03,1.91c-1.04,1.27-1.55,3-1.53,5.19L65.1,231.17L65.1,231.17z"/>
	<polygon class="st0" points="80.58,248.51 71.66,218.64 78.91,218.64 84.16,238.22 89.02,218.64 96.19,218.64 100.87,238.22 
		106.25,218.64 113.6,218.64 104.56,248.51 97.41,248.51 92.58,229.3 87.81,248.51 	"/>
	<path class="st0" d="M149.1,248.51h-8.45l-3.34-9.4H121.9l-3.19,9.4h-8.41l14.79-41.15h8.52L149.1,248.51z M134.81,232.11
		l-5.4-15.14l-5.13,15.14H134.81z"/>
	<path class="st0" d="M168.55,248.51v-4.46c-1.02,1.58-2.36,2.85-4.02,3.79c-1.66,0.93-3.42,1.4-5.26,1.4
		c-1.88,0-3.58-0.44-5.06-1.33c-1.5-0.88-2.58-2.12-3.25-3.72c-0.67-1.6-1.01-3.81-1.01-6.63v-18.93h7.4v13.74
		c0,4.2,0.14,6.78,0.41,7.72c0.27,0.95,0.78,1.7,1.51,2.25c0.72,0.56,1.64,0.83,2.77,0.83c1.28,0,2.42-0.37,3.43-1.11
		c1.02-0.74,1.71-1.66,2.09-2.76c0.37-1.1,0.56-3.79,0.56-8.06v-12.61h7.41v29.87h-6.98V248.51z"/>
	<path class="st0" d="M192.66,218.64v6.27h-5.05v12.08c0,2.45,0.05,3.87,0.15,4.28c0.1,0.41,0.33,0.74,0.68,1.01
		c0.33,0.26,0.76,0.39,1.27,0.39c0.68,0,1.69-0.25,3.01-0.76l0.51,6.16c-1.72,0.79-3.65,1.18-5.82,1.18c-1.34,0-2.54-0.24-3.6-0.72
		c-1.07-0.48-1.85-1.1-2.35-1.86c-0.51-0.76-0.84-1.79-1.02-3.09c-0.15-0.92-0.24-2.78-0.24-5.59v-13.07h-3.36v-6.27h3.36v-5.96
		l7.4-4.59v10.55h5.06V218.64z"/>
	<path class="st0" d="M192.85,233.2c0-2.63,0.61-5.16,1.82-7.62c1.21-2.46,2.93-4.34,5.16-5.63c2.22-1.3,4.71-1.94,7.46-1.94
		c4.25,0,7.73,1.47,10.43,4.4c2.71,2.94,4.06,6.65,4.06,11.13c0,4.52-1.37,8.26-4.11,11.24c-2.73,2.97-6.18,4.46-10.33,4.46
		c-2.56,0-5.01-0.62-7.35-1.86s-4.11-3.05-5.32-5.45C193.46,239.55,192.85,236.64,192.85,233.2 M200.48,233.63
		c0,2.95,0.66,5.21,1.99,6.79c1.32,1.57,2.95,2.35,4.87,2.35c1.94,0,3.56-0.79,4.87-2.35c1.3-1.57,1.94-3.86,1.94-6.84
		c0-2.92-0.65-5.16-1.94-6.73c-1.31-1.57-2.94-2.35-4.87-2.35c-1.92,0-3.55,0.78-4.87,2.35
		C201.14,228.41,200.48,230.67,200.48,233.63"/>
	<path class="st0" d="M236.26,248.51v-41.15h12.63c4.78,0,7.91,0.21,9.36,0.62c2.22,0.62,4.08,1.96,5.59,4.03
		c1.5,2.06,2.26,4.73,2.26,8c0,2.52-0.43,4.64-1.3,6.37c-0.88,1.72-1.98,3.07-3.31,4.05c-1.34,0.98-2.7,1.63-4.06,1.94
		c-1.88,0.4-4.61,0.6-8.18,0.6h-5.13v15.56h-7.86V248.51z M244.11,214.35v11.59h4.31c3.12,0,5.2-0.21,6.24-0.64
		c1.04-0.43,1.86-1.1,2.46-2c0.59-0.91,0.89-1.97,0.89-3.18c0-1.49-0.41-2.72-1.26-3.68c-0.83-0.96-1.88-1.57-3.16-1.82
		c-0.94-0.18-2.83-0.27-5.68-0.27H244.11z"/>
	<path class="st0" d="M276.18,248.51h-7.41v-29.87h6.96v4.23c1.18-2,2.24-3.31,3.17-3.93c0.94-0.62,2-0.93,3.19-0.93
		c1.67,0,3.29,0.49,4.86,1.49l-2.31,6.9c-1.24-0.86-2.41-1.29-3.5-1.29c-1.02,0-1.89,0.3-2.61,0.91c-0.72,0.6-1.3,1.71-1.72,3.3
		c-0.43,1.59-0.63,4.92-0.63,9.98V248.51z"/>
	<path class="st0" d="M302.96,239.11l7.41,1.35c-0.96,2.86-2.46,5.04-4.5,6.54c-2.03,1.49-4.59,2.24-7.67,2.24
		c-4.85,0-8.44-1.7-10.76-5.09c-1.83-2.72-2.75-6.15-2.75-10.29c0-4.95,1.21-8.83,3.65-11.64c2.42-2.8,5.5-4.2,9.22-4.2
		c4.18,0,7.49,1.47,9.9,4.42s3.56,7.47,3.47,13.55h-18.62c0.06,2.33,0.66,4.15,1.78,5.46c1.13,1.3,2.53,1.96,4.22,1.96
		c1.14,0,2.1-0.34,2.88-1.02C301.99,241.7,302.58,240.61,302.96,239.11 M303.53,231.17c-0.05-2.32-0.62-4.08-1.66-5.29
		c-1.06-1.21-2.33-1.82-3.83-1.82c-1.63,0-2.98,0.64-4.03,1.91c-1.04,1.27-1.56,3-1.54,5.19L303.53,231.17L303.53,231.17z"/>
	<path class="st0" d="M338.24,227.41l-7.29,1.36c-0.24-1.52-0.8-2.67-1.7-3.44c-0.88-0.77-2.05-1.16-3.47-1.16
		c-1.88,0-3.37,0.68-4.48,2.05c-1.11,1.35-1.67,3.63-1.67,6.82c0,3.55,0.55,6.06,1.69,7.52c1.11,1.47,2.64,2.2,4.55,2.2
		c1.41,0,2.59-0.43,3.5-1.3c0.91-0.86,1.55-2.35,1.91-4.45l7.29,1.35c-0.77,3.59-2.23,6.29-4.39,8.12
		c-2.17,1.83-5.05,2.75-8.67,2.75c-4.12,0-7.39-1.38-9.84-4.14c-2.45-2.76-3.68-6.57-3.68-11.45c0-4.93,1.24-8.78,3.7-11.52
		c2.45-2.75,5.79-4.12,9.98-4.12c3.44,0,6.16,0.77,8.19,2.32C335.89,221.88,337.35,224.24,338.24,227.41"/>
	<path class="st0" d="M340.52,207.35h7.41v7.31h-7.41V207.35z M340.52,218.64h7.41v29.87h-7.41V218.64z"/>
	<path class="st0" d="M349.75,240.15l7.39-1.25c0.33,1.5,0.96,2.64,1.92,3.42c0.96,0.77,2.3,1.16,4.03,1.16
		c1.92,0,3.36-0.38,4.32-1.13c0.64-0.53,0.96-1.24,0.96-2.13c0-0.6-0.17-1.1-0.51-1.5c-0.39-0.37-1.23-0.72-2.51-1.04
		c-5.99-1.42-9.79-2.7-11.39-3.86c-2.21-1.61-3.32-3.84-3.32-6.69c0-2.58,0.97-4.74,2.92-6.5c1.92-1.75,4.93-2.63,9.01-2.63
		c3.87,0,6.75,0.65,8.63,1.96c1.89,1.3,3.19,3.22,3.9,5.77l-6.96,1.35c-0.3-1.15-0.89-2.02-1.74-2.63
		c-0.85-0.62-2.06-0.92-3.67-0.92c-1.99,0-3.41,0.3-4.28,0.88c-0.57,0.41-0.86,0.96-0.86,1.61c0,0.56,0.24,1.04,0.73,1.44
		c0.69,0.53,3.02,1.27,7,2.24c3.97,0.96,6.74,2.14,8.33,3.54c1.55,1.42,2.33,3.39,2.33,5.91c0,2.76-1.07,5.12-3.23,7.1
		c-2.15,1.99-5.34,2.97-9.56,2.97c-3.83,0-6.85-0.82-9.08-2.45C351.89,245.17,350.43,242.95,349.75,240.15"/>
	<path class="st0" d="M379.18,207.35h7.4v7.31h-7.4V207.35z M379.18,218.64h7.4v29.87h-7.4V218.64z"/>
	<path class="st0" d="M389.3,233.2c0-2.63,0.6-5.16,1.81-7.62c1.21-2.46,2.93-4.34,5.16-5.63c2.22-1.3,4.71-1.94,7.46-1.94
		c4.25,0,7.73,1.47,10.43,4.4c2.7,2.94,4.06,6.65,4.06,11.13c0,4.52-1.36,8.26-4.09,11.24c-2.75,2.97-6.19,4.46-10.34,4.46
		c-2.56,0-5.02-0.62-7.35-1.86c-2.34-1.24-4.12-3.05-5.32-5.45C389.9,239.55,389.3,236.64,389.3,233.2 M396.91,233.63
		c0,2.95,0.66,5.21,1.99,6.79c1.33,1.57,2.95,2.35,4.87,2.35c1.94,0,3.56-0.79,4.88-2.35c1.3-1.57,1.95-3.86,1.95-6.84
		c0-2.92-0.65-5.16-1.95-6.73c-1.32-1.57-2.94-2.35-4.88-2.35c-1.92,0-3.54,0.78-4.87,2.35
		C397.57,228.41,396.91,230.67,396.91,233.63"/>
	<path class="st0" d="M446.36,248.51h-7.41V233.3c0-3.22-0.15-5.3-0.46-6.24c-0.32-0.95-0.83-1.68-1.55-2.2
		c-0.71-0.52-1.58-0.79-2.58-0.79c-1.3,0-2.45,0.38-3.48,1.13c-1.02,0.74-1.72,1.74-2.11,2.97c-0.39,1.24-0.58,3.51-0.58,6.85v13.5
		h-7.41v-29.87h6.95v4.37c2.45-3.34,5.52-5,9.23-5c1.62,0,3.11,0.31,4.46,0.94s2.38,1.43,3.07,2.41c0.71,0.97,1.19,2.08,1.46,3.31
		c0.27,1.24,0.41,3.01,0.41,5.31L446.36,248.51L446.36,248.51z"/>
	<path class="st0" d="M487.29,233.36l7.63,2.51c-1.17,4.52-3.1,7.88-5.8,10.08c-2.7,2.19-6.13,3.28-10.3,3.28
		c-5.16,0-9.39-1.86-12.7-5.61c-3.31-3.73-4.95-8.84-4.95-15.33c0-6.86,1.66-12.18,4.98-15.98c3.33-3.79,7.7-5.69,13.14-5.69
		c4.73,0,8.59,1.49,11.57,4.45c1.74,1.75,3.06,4.28,3.95,7.57l-7.74,1.98c-0.46-2.13-1.43-3.81-2.86-5.04
		c-1.45-1.24-3.21-1.85-5.31-1.85c-2.87,0-5.2,1.1-6.98,3.3c-1.78,2.19-2.69,5.74-2.69,10.65c0,5.22,0.88,8.94,2.65,11.15
		c1.75,2.2,4.04,3.31,6.85,3.31c2.06,0,3.84-0.7,5.35-2.11C485.58,238.61,486.65,236.4,487.29,233.36"/>
	<path class="st0" d="M496.55,233.2c0-2.63,0.61-5.16,1.82-7.62c1.21-2.46,2.93-4.34,5.16-5.63c2.22-1.3,4.71-1.94,7.46-1.94
		c4.25,0,7.73,1.47,10.44,4.4c2.7,2.94,4.06,6.65,4.06,11.13c0,4.52-1.37,8.26-4.11,11.24c-2.73,2.97-6.17,4.46-10.32,4.46
		c-2.57,0-5.02-0.62-7.35-1.86c-2.34-1.24-4.12-3.05-5.32-5.45C497.16,239.55,496.55,236.64,496.55,233.2 M504.18,233.63
		c0,2.95,0.66,5.21,1.97,6.79c1.33,1.57,2.95,2.35,4.89,2.35c1.94,0,3.56-0.79,4.87-2.35c1.3-1.57,1.95-3.86,1.95-6.84
		c0-2.92-0.65-5.16-1.95-6.73c-1.31-1.57-2.94-2.35-4.87-2.35s-3.55,0.78-4.89,2.35C504.84,228.41,504.18,230.67,504.18,233.63"/>
	<rect x="528.06" y="240.03" class="st0" width="7.4" height="7.83"/>
	<rect x="638.58" y="240.03" class="st0" width="7.4" height="7.83"/>
	<path class="st0" d="M539.73,240.67h7.41v5.63c0,2.28-0.19,4.07-0.56,5.4c-0.37,1.31-1.06,2.49-2.09,3.54
		c-1.03,1.04-2.33,1.86-3.9,2.46l-1.42-3.23c1.47-0.53,2.53-1.25,3.16-2.18c0.62-0.91,0.96-2.17,0.99-3.77h-3.58L539.73,240.67
		L539.73,240.67z"/>
	<polygon class="st0" points="563.76,248.51 563.76,207.77 571.62,207.77 571.62,241.51 591.02,241.51 591.02,248.51 	"/>
	<path class="st0" d="M606.14,218.64v6.27h-5.04v12.08c0,2.45,0.05,3.87,0.15,4.28c0.1,0.41,0.32,0.74,0.68,1.01
		c0.33,0.26,0.77,0.39,1.27,0.39c0.68,0,1.69-0.25,3-0.76l0.51,6.16c-1.71,0.79-3.65,1.18-5.82,1.18c-1.34,0-2.53-0.24-3.59-0.72
		c-1.07-0.48-1.85-1.1-2.34-1.86c-0.51-0.76-0.84-1.79-1.02-3.09c-0.16-0.92-0.23-2.78-0.23-5.59v-13.07h-3.37v-6.27h3.37v-5.96
		l7.4-4.59v10.55h5.03V218.64z"/>
	<path class="st0" d="M633.82,248.51h-6.96v-4.38c-1.15,1.71-2.5,2.98-4.05,3.83c-1.56,0.85-3.13,1.28-4.72,1.28
		c-3.23,0-6.01-1.38-8.31-4.15c-2.29-2.77-3.45-6.63-3.45-11.59c0-5.06,1.13-8.91,3.38-11.54c2.25-2.64,5.09-3.95,8.53-3.95
		c3.14,0,5.87,1.38,8.17,4.15v-14.81h7.41V248.51z M613.97,232.97c0,3.19,0.41,5.49,1.25,6.91c1.22,2.06,2.91,3.09,5.09,3.09
		c1.72,0,3.2-0.77,4.42-2.32c1.2-1.54,1.81-3.86,1.81-6.93c0-3.43-0.59-5.89-1.77-7.4s-2.67-2.26-4.51-2.26
		c-1.79,0-3.28,0.75-4.48,2.24C614.56,227.79,613.97,230.02,613.97,232.97"/>
	<path class="st0" d="M612.52,9h-0.04h-46.8h-3.26h-99.97v0.61v23.28v26.13v3.11c-17.57-19.79-38.89-35.01-62.6-43.96
		c-15.67-5.93-32.37-9.15-49.71-9.15h-0.31v50.03v2.94c-17.57-19.72-38.82-34.88-62.48-43.81c-15.68-5.93-32.37-9.15-49.72-9.15
		h-0.3v50.03v127.86h50.03V73.56c34.16,21.18,58.48,63.49,62.24,113.34h0.23h49.95h0.07v-27.48h57.94
		c2.13,8.82,3.61,18.01,4.32,27.47h0.33h49.82h0.2v-49.28V87.6V59.02h0.16v-0.01h2.19h5.7h2.18v0.01h39.74
		c-7.66,21.6-23.18,39.18-42.89,48.86v51.66c54.4-16.14,94.29-68.77,94.29-131.26C613.84,21.74,613.39,15.31,612.52,9
		 M399.86,118.62V73.56c16.82,10.43,31.25,26,42.02,45.06H399.86z"/>
	<g>
		<path class="st0" d="M166.58,31.08c2.59,37.97-7.2,67.16-21.87,89.35c1.4,0.96,2.32,2.57,2.32,4.4c0,0.75-0.16,1.45-0.44,2.1
			c11.03,4.97,22.93,8.59,35.64,10.79c6.13-12.64,9.57-26.82,9.57-41.81C191.81,70.91,182.25,48.15,166.58,31.08z"/>
		<polygon class="st0" points="67.91,142.12 69.04,144.53 67.92,142.12 68.04,142.07 		"/>
		<path class="st0" d="M106.71,151.19l-7.93,5.75l1.88,4.8c3.31-2.17,6.67-4.56,10.04-7.14l0.01-0.01L106.71,151.19z"/>
		<polygon class="st0" points="95.95,149.86 100.9,146.29 91.26,138.19 		"/>
		<path class="st0" d="M91.3,167.52c0.02-0.01,0.03-0.02,0.04-0.03c-0.19-0.54-0.31-1.11-0.31-1.72c0-0.69,0.15-1.35,0.39-1.96
			c-2.28-1.48-4.48-3.04-6.61-4.65l-1.22-2.63c2.7,2.15,5.51,4.17,8.47,6.11c0.01-0.02,0.02-0.04,0.03-0.05c0,0,0,0,0,0l-9.75-28.85
			L90,128.2l27.55,20.82l0.01,0c1.39-1.19,2.77-2.44,4.14-3.71L96.82,123.1l9.58-10.72c2.06-2.32,4.32-3.47,6.7-3.43
			c2.39,0.05,4.83,1.19,7.31,3.4c2.56,2.28,4.01,4.72,4.31,7.27c0.32,2.56-0.69,5.15-3.02,7.72l-3.17,3.56l9.35,8.35
			c3.34-3.47,6.59-7.2,9.68-11.18c-0.71-0.9-1.15-2.02-1.15-3.25c0-0.82,0.2-1.6,0.54-2.29c-6.73-3.7-13.1-7.94-19.07-12.73
			c-3.69-2.97-7.24-6.14-10.63-9.52c-0.89,0.66-1.97,1.06-3.16,1.06c-1.54,0-2.91-0.66-3.88-1.7c-7.91,8.64-17.15,16.3-27.66,22.86
			c-3.41,2.13-6.83,4.06-10.2,5.81c0.11,0.42,0.18,0.85,0.18,1.3c0,1.37-0.54,2.61-1.39,3.55c2.24,3,4.61,5.94,7.13,8.78l7.02-3.21
			l13.93,29.95c0,0,0.01,0,0.01,0C89.92,168.31,90.6,167.93,91.3,167.52z"/>
		<path class="st0" d="M64.97,160.48l7.62,16.42c0.68-0.3,1.38-0.61,2.1-0.93c2.21-0.98,4.58-2.1,7.05-3.33l0,0L64.97,160.48z"/>
		<path class="st0" d="M112.47,117.7c-0.94-0.04-1.96,0.53-3.03,1.74l-1.66,1.86l5.63,5.03l1.42-1.6c1.13-1.27,1.66-2.38,1.58-3.35
			c-0.06-0.97-0.51-1.82-1.33-2.55C114.3,118.12,113.42,117.75,112.47,117.7z"/>
		<path class="st0" d="M56.45,182.76h0.04h0.03c0.03-0.01,0.07-0.01,0.09-0.02l0.2-0.05c0.19-0.09,0.54-0.16,0.97-0.28
			c0.84-0.27,2.09-0.67,3.69-1.21c1.05-0.37,2.24-0.79,3.54-1.28l0,0l-13.87-29.98l7.3-3.41l17.39,12.65l-6.54-14.12
			c-3.28-3.53-6.32-7.22-9.15-11.01c-0.84,0.55-1.83,0.87-2.9,0.87c-1.73,0-3.26-0.85-4.24-2.13c-21.27,9.33-38.78,11.57-39.8,11.69
			c9.86,16.75,24.66,30.22,42.4,38.45c0.31-0.05,0.59-0.1,0.85-0.16L56.45,182.76z"/>
		<path class="st0" d="M100.63,168.88c-0.97,1.33-2.53,2.2-4.29,2.2c-1.86,0.01-3.46-0.93-4.41-2.36l-0.26,0.14l-0.01,0
			c-16.79,9.6-30.67,14-34.05,14.99c11.73,5.11,24.68,7.96,38.29,7.96c15.78,0,30.68-3.81,43.81-10.57
			c-14.88-1.93-27.89-6.21-39.24-12.14C100.53,169.03,100.58,168.95,100.63,168.88z"/>
		<path class="st0" d="M141.72,130.12c-1.2,0-2.3-0.42-3.19-1.09c-11.45,14.69-24.93,25.85-37.59,34.14
			c-0.01,0.01-0.01,0.01-0.02,0.01c0.45,0.77,0.73,1.65,0.73,2.59c0,0.79-0.18,1.53-0.49,2.2c11.67,6.1,25.14,10.41,40.62,12.17
			c17.4-9.5,31.53-24.23,40.28-42.08c-12.7-2.21-24.61-5.83-35.64-10.81C145.53,128.95,143.77,130.12,141.72,130.12z"/>
		<path class="st0" d="M24.96,34.35c0.11,1.02,0.27,2.49,0.51,4.32c0.48,3.74,1.27,9.05,2.56,15.49
			c2.55,12.89,7.1,30.19,15.04,47.88c3.41,7.59,7.44,15.25,12.21,22.66c0.61-0.24,1.27-0.39,1.96-0.39c2.34,0,4.31,1.53,5.02,3.65
			c3.35-1.74,6.73-3.65,10.12-5.77c10.49-6.55,19.71-14.19,27.6-22.82c-0.74-0.91-1.19-2.06-1.19-3.32c0-1.32,0.5-2.52,1.3-3.45
			c-7.03-8.14-13.3-17.25-18.74-27.25c-1.42-2.62-2.74-5.21-3.97-7.79l-14.82,0.98l8.54,10.22l-10.22-8.54l-1.48,24.46L57.93,60.2
			L47.7,68.76l8.52-10.24l-22.24-1.47l22.24-1.48l-8.52-10.2l10.2,8.51l1.49-24.39v0.01l1.5,24.38l10.2-8.51l-8.53,10.18l14.31,0.95
			C65.1,31.48,62.05,9.62,61.68,6.67h0c-0.02-0.11-0.03-0.23-0.05-0.35c-14.2,5.44-26.78,14.15-36.81,25.22
			c0.02,0.57,0.05,1.18,0.07,1.71C24.89,33.49,24.93,33.88,24.96,34.35z M62.11,65.75c0.11,0,0.2,0.09,0.2,0.2
			c0,0.11-0.09,0.2-0.2,0.2c-0.11,0-0.2-0.09-0.2-0.2C61.91,65.84,62,65.75,62.11,65.75z"/>
		<path class="st0" d="M62.04,6.59c0.35,2.78,3.38,24.78,15.26,49.95l7.68,0.51l-7.2,0.48c1.21,2.52,2.5,5.08,3.9,7.64
			c5.42,9.96,11.65,19.03,18.65,27.13c0.96-0.98,2.3-1.58,3.77-1.58c0.93,0,1.8,0.26,2.56,0.69c2.5-3.25,4.84-6.61,7-10.1
			c12.62-20.4,19.32-44.89,19.9-72.79c0-0.29,0-0.57-0.01-0.83C122,2.74,109.27,0,95.9,0C83.97,0,72.54,2.19,62,6.17
			C62.01,6.31,62.02,6.45,62.04,6.59L62.04,6.59z"/>
		<path class="st0" d="M113.97,81.51c-2.15,3.48-4.49,6.83-6.98,10.08c1.45,0.95,2.42,2.58,2.42,4.45c0,1.61-0.73,3.04-1.86,4.01
			c3.38,3.36,6.91,6.52,10.58,9.47c5.95,4.78,12.3,9.01,19.01,12.69c0.91-1.61,2.62-2.71,4.59-2.71c0.63,0,1.23,0.13,1.79,0.33
			c14.68-22.14,24.44-51.34,21.66-89.47l0,0c-0.02-0.29-0.05-0.58-0.08-0.85c-8.78-9.15-19.35-16.56-31.15-21.66
			c0,0.24,0,0.47-0.01,0.67C133.35,36.5,126.63,61.06,113.97,81.51z"/>
		<path class="st0" d="M52.78,132.49c-0.54-0.83-0.86-1.81-0.86-2.87c0-1.76,0.87-3.3,2.19-4.27
			c-26.52-41.31-30.42-90.27-30.6-92.35C8.87,49.84,0,71.84,0,95.9c0,17.59,4.74,34.06,13,48.23c0.06-0.01,0.13-0.01,0.19-0.02
			C14.62,143.94,31.87,141.64,52.78,132.49z"/>
	</g>
</g>
</svg>
