<?xml version="1.0" encoding="utf-8"?>
<!-- Generator: Adobe Illustrator 28.3.0, SVG Export Plug-In . SVG Version: 6.00 Build 0)  -->
<svg version="1.1" id="Layer_1" xmlns="http://www.w3.org/2000/svg" xmlns:xlink="http://www.w3.org/1999/xlink" x="0px" y="0px"
	 viewBox="0 0 645.98 257.72" style="enable-background:new 0 0 645.98 257.72;" xml:space="preserve">
<style type="text/css">
	.st0{fill:#005CA9;}
	.st1{fill:#6D6F72;}
	
		.st2{clip-path:url(#SVGID_00000049924996782297641520000001008791817678285696_);fill:url(#SVGID_00000136378096341438533910000015877733222757707921_);}
	.st3{fill:#FFFFFF;}
	.st4{fill:none;stroke:#FFFFFF;stroke-width:0.373;}
</style>
<g>
	<polygon class="st0" points="12.66,248.89 12.66,207.73 20.28,207.73 36.1,235.14 36.1,207.73 43.39,207.73 43.39,248.89 
		35.53,248.89 19.95,222.11 19.95,248.89 	"/>
	<path class="st1" d="M64.54,239.49l7.4,1.35c-0.96,2.86-2.45,5.04-4.49,6.54c-2.05,1.49-4.6,2.24-7.67,2.24
		c-4.85,0-8.44-1.7-10.76-5.09c-1.84-2.72-2.76-6.15-2.76-10.29c0-4.95,1.22-8.83,3.65-11.64c2.42-2.8,5.49-4.2,9.22-4.2
		c4.19,0,7.48,1.47,9.9,4.42c2.41,2.95,3.56,7.47,3.47,13.55H53.87c0.07,2.33,0.66,4.15,1.8,5.46c1.13,1.3,2.52,1.96,4.22,1.96
		c1.15,0,2.11-0.34,2.89-1.02C63.55,242.08,64.14,240.99,64.54,239.49 M65.1,231.55c-0.06-2.32-0.62-4.08-1.66-5.29
		c-1.05-1.21-2.33-1.82-3.84-1.82c-1.63,0-2.98,0.64-4.03,1.91c-1.04,1.27-1.55,3-1.53,5.19H65.1z"/>
	<polygon class="st1" points="80.58,248.89 71.66,219.02 78.91,219.02 84.16,238.6 89.02,219.02 96.19,219.02 100.87,238.6 
		106.25,219.02 113.6,219.02 104.56,248.89 97.41,248.89 92.58,229.68 87.81,248.89 	"/>
	<path class="st0" d="M149.1,248.89h-8.45l-3.34-9.4h-15.41l-3.19,9.4h-8.41l14.79-41.15h8.52L149.1,248.89z M134.81,232.49
		l-5.4-15.14l-5.13,15.14H134.81z"/>
	<path class="st1" d="M168.55,248.89v-4.46c-1.02,1.58-2.36,2.85-4.02,3.79c-1.66,0.93-3.42,1.4-5.26,1.4
		c-1.88,0-3.58-0.44-5.06-1.33c-1.5-0.88-2.58-2.12-3.25-3.72c-0.67-1.6-1.01-3.81-1.01-6.63v-18.93h7.4v13.74
		c0,4.2,0.14,6.78,0.41,7.72c0.27,0.95,0.78,1.7,1.51,2.25c0.72,0.56,1.64,0.83,2.77,0.83c1.28,0,2.42-0.37,3.43-1.11
		c1.02-0.74,1.71-1.66,2.09-2.76c0.37-1.1,0.56-3.79,0.56-8.06v-12.61h7.41v29.87H168.55z"/>
	<path class="st1" d="M192.66,219.02v6.27h-5.05v12.08c0,2.45,0.05,3.87,0.15,4.28c0.1,0.41,0.33,0.74,0.68,1.01
		c0.33,0.26,0.76,0.39,1.27,0.39c0.68,0,1.69-0.25,3.01-0.76l0.51,6.16c-1.72,0.79-3.65,1.18-5.82,1.18c-1.34,0-2.54-0.24-3.6-0.72
		c-1.07-0.48-1.85-1.1-2.35-1.86c-0.51-0.76-0.84-1.79-1.02-3.09c-0.15-0.92-0.24-2.78-0.24-5.59v-13.07h-3.36v-6.27h3.36v-5.96
		l7.4-4.59v10.55H192.66z"/>
	<path class="st1" d="M192.85,233.58c0-2.63,0.61-5.16,1.82-7.62c1.21-2.46,2.93-4.34,5.16-5.63c2.22-1.3,4.71-1.94,7.46-1.94
		c4.25,0,7.73,1.47,10.43,4.4c2.71,2.94,4.06,6.65,4.06,11.13c0,4.52-1.37,8.26-4.11,11.24c-2.73,2.97-6.18,4.46-10.33,4.46
		c-2.56,0-5.01-0.62-7.35-1.86c-2.34-1.24-4.11-3.05-5.32-5.45C193.46,239.93,192.85,237.02,192.85,233.58 M200.48,234.01
		c0,2.95,0.66,5.21,1.99,6.79c1.32,1.57,2.95,2.35,4.87,2.35c1.94,0,3.56-0.79,4.87-2.35c1.3-1.57,1.94-3.86,1.94-6.84
		c0-2.92-0.65-5.16-1.94-6.73c-1.31-1.57-2.94-2.35-4.87-2.35c-1.92,0-3.55,0.78-4.87,2.35
		C201.14,228.79,200.48,231.05,200.48,234.01"/>
	<path class="st0" d="M236.26,248.89v-41.15h12.63c4.78,0,7.91,0.21,9.36,0.62c2.22,0.62,4.08,1.96,5.59,4.03
		c1.5,2.06,2.26,4.73,2.26,8c0,2.52-0.43,4.64-1.3,6.37c-0.88,1.72-1.98,3.07-3.31,4.05c-1.34,0.98-2.7,1.63-4.06,1.94
		c-1.88,0.4-4.61,0.6-8.18,0.6h-5.13v15.56H236.26z M244.11,214.73v11.59h4.31c3.12,0,5.2-0.21,6.24-0.64c1.04-0.43,1.86-1.1,2.46-2
		c0.59-0.91,0.89-1.97,0.89-3.18c0-1.49-0.41-2.72-1.26-3.68c-0.83-0.96-1.88-1.57-3.16-1.82c-0.94-0.18-2.83-0.27-5.68-0.27H244.11
		z"/>
	<path class="st1" d="M276.18,248.89h-7.41v-29.87h6.96v4.23c1.18-2,2.24-3.31,3.17-3.93c0.94-0.62,2-0.93,3.19-0.93
		c1.67,0,3.29,0.49,4.86,1.49l-2.31,6.9c-1.24-0.86-2.41-1.29-3.5-1.29c-1.02,0-1.89,0.3-2.61,0.91c-0.72,0.6-1.3,1.71-1.72,3.3
		c-0.43,1.59-0.63,4.92-0.63,9.98V248.89z"/>
	<path class="st1" d="M302.96,239.49l7.41,1.35c-0.96,2.86-2.46,5.04-4.5,6.54c-2.03,1.49-4.59,2.24-7.67,2.24
		c-4.85,0-8.44-1.7-10.76-5.09c-1.83-2.72-2.75-6.15-2.75-10.29c0-4.95,1.21-8.83,3.65-11.64c2.42-2.8,5.5-4.2,9.22-4.2
		c4.18,0,7.49,1.47,9.9,4.42c2.41,2.95,3.56,7.47,3.47,13.55h-18.62c0.06,2.33,0.66,4.15,1.78,5.46c1.13,1.3,2.53,1.96,4.22,1.96
		c1.14,0,2.1-0.34,2.88-1.02C301.99,242.08,302.58,240.99,302.96,239.49 M303.53,231.55c-0.05-2.32-0.62-4.08-1.66-5.29
		c-1.06-1.21-2.33-1.82-3.83-1.82c-1.63,0-2.98,0.64-4.03,1.91c-1.04,1.27-1.56,3-1.54,5.19H303.53z"/>
	<path class="st1" d="M338.24,227.79l-7.29,1.36c-0.24-1.52-0.8-2.67-1.7-3.44c-0.88-0.77-2.05-1.16-3.47-1.16
		c-1.88,0-3.37,0.68-4.48,2.05c-1.11,1.35-1.67,3.63-1.67,6.82c0,3.55,0.55,6.06,1.69,7.52c1.11,1.47,2.64,2.2,4.55,2.2
		c1.41,0,2.59-0.43,3.5-1.3c0.91-0.86,1.55-2.35,1.91-4.45l7.29,1.35c-0.77,3.59-2.23,6.29-4.39,8.12
		c-2.17,1.83-5.05,2.75-8.67,2.75c-4.12,0-7.39-1.38-9.84-4.14c-2.45-2.76-3.68-6.57-3.68-11.45c0-4.93,1.24-8.78,3.7-11.52
		c2.45-2.75,5.79-4.12,9.98-4.12c3.44,0,6.16,0.77,8.19,2.32C335.89,222.26,337.35,224.62,338.24,227.79"/>
	<path class="st1" d="M340.52,207.73h7.41v7.31h-7.41V207.73z M340.52,219.02h7.41v29.87h-7.41V219.02z"/>
	<path class="st1" d="M349.75,240.53l7.39-1.25c0.33,1.5,0.96,2.64,1.92,3.42c0.96,0.77,2.3,1.16,4.03,1.16
		c1.92,0,3.36-0.38,4.32-1.13c0.64-0.53,0.96-1.24,0.96-2.13c0-0.6-0.17-1.1-0.51-1.5c-0.39-0.37-1.23-0.72-2.51-1.04
		c-5.99-1.42-9.79-2.7-11.39-3.86c-2.21-1.61-3.32-3.84-3.32-6.69c0-2.58,0.97-4.74,2.92-6.5c1.92-1.75,4.93-2.63,9.01-2.63
		c3.87,0,6.75,0.65,8.63,1.96c1.89,1.3,3.19,3.22,3.9,5.77l-6.96,1.35c-0.3-1.15-0.89-2.02-1.74-2.63
		c-0.85-0.62-2.06-0.92-3.67-0.92c-1.99,0-3.41,0.3-4.28,0.88c-0.57,0.41-0.86,0.96-0.86,1.61c0,0.56,0.24,1.04,0.73,1.44
		c0.69,0.53,3.02,1.27,7,2.24c3.97,0.96,6.74,2.14,8.33,3.54c1.55,1.42,2.33,3.39,2.33,5.91c0,2.76-1.07,5.12-3.23,7.1
		c-2.15,1.99-5.34,2.97-9.56,2.97c-3.83,0-6.85-0.82-9.08-2.45C351.89,245.55,350.43,243.33,349.75,240.53"/>
	<path class="st1" d="M379.18,207.73h7.4v7.31h-7.4V207.73z M379.18,219.02h7.4v29.87h-7.4V219.02z"/>
	<path class="st1" d="M389.3,233.58c0-2.63,0.6-5.16,1.81-7.62c1.21-2.46,2.93-4.34,5.16-5.63c2.22-1.3,4.71-1.94,7.46-1.94
		c4.25,0,7.73,1.47,10.43,4.4c2.7,2.94,4.06,6.65,4.06,11.13c0,4.52-1.36,8.26-4.09,11.24c-2.75,2.97-6.19,4.46-10.34,4.46
		c-2.56,0-5.02-0.62-7.35-1.86c-2.34-1.24-4.12-3.05-5.32-5.45C389.9,239.93,389.3,237.02,389.3,233.58 M396.91,234.01
		c0,2.95,0.66,5.21,1.99,6.79c1.33,1.57,2.95,2.35,4.87,2.35c1.94,0,3.56-0.79,4.88-2.35c1.3-1.57,1.95-3.86,1.95-6.84
		c0-2.92-0.65-5.16-1.95-6.73c-1.32-1.57-2.94-2.35-4.88-2.35c-1.92,0-3.54,0.78-4.87,2.35
		C397.57,228.79,396.91,231.05,396.91,234.01"/>
	<path class="st1" d="M446.36,248.89h-7.41v-15.21c0-3.22-0.15-5.3-0.46-6.24c-0.32-0.95-0.83-1.68-1.55-2.2
		c-0.71-0.52-1.58-0.79-2.58-0.79c-1.3,0-2.45,0.38-3.48,1.13c-1.02,0.74-1.72,1.74-2.11,2.97c-0.39,1.24-0.58,3.51-0.58,6.85v13.5
		h-7.41v-29.87h6.95v4.37c2.45-3.34,5.52-5,9.23-5c1.62,0,3.11,0.31,4.46,0.94c1.35,0.63,2.38,1.43,3.07,2.41
		c0.71,0.97,1.19,2.08,1.46,3.31c0.27,1.24,0.41,3.01,0.41,5.31V248.89z"/>
	<path class="st1" d="M487.29,233.74l7.63,2.51c-1.17,4.52-3.1,7.88-5.8,10.08c-2.7,2.19-6.13,3.28-10.3,3.28
		c-5.16,0-9.39-1.86-12.7-5.61c-3.31-3.73-4.95-8.84-4.95-15.33c0-6.86,1.66-12.18,4.98-15.98c3.33-3.79,7.7-5.69,13.14-5.69
		c4.73,0,8.59,1.49,11.57,4.45c1.74,1.75,3.06,4.28,3.95,7.57l-7.74,1.98c-0.46-2.13-1.43-3.81-2.86-5.04
		c-1.45-1.24-3.21-1.85-5.31-1.85c-2.87,0-5.2,1.1-6.98,3.3c-1.78,2.19-2.69,5.74-2.69,10.65c0,5.22,0.88,8.94,2.65,11.15
		c1.75,2.2,4.04,3.31,6.85,3.31c2.06,0,3.84-0.7,5.35-2.11C485.58,238.99,486.65,236.78,487.29,233.74"/>
	<path class="st1" d="M496.55,233.58c0-2.63,0.61-5.16,1.82-7.62c1.21-2.46,2.93-4.34,5.16-5.63c2.22-1.3,4.71-1.94,7.46-1.94
		c4.25,0,7.73,1.47,10.44,4.4c2.7,2.94,4.06,6.65,4.06,11.13c0,4.52-1.37,8.26-4.11,11.24c-2.73,2.97-6.17,4.46-10.32,4.46
		c-2.57,0-5.02-0.62-7.35-1.86c-2.34-1.24-4.12-3.05-5.32-5.45C497.16,239.93,496.55,237.02,496.55,233.58 M504.18,234.01
		c0,2.95,0.66,5.21,1.97,6.79c1.33,1.57,2.95,2.35,4.89,2.35c1.94,0,3.56-0.79,4.87-2.35c1.3-1.57,1.95-3.86,1.95-6.84
		c0-2.92-0.65-5.16-1.95-6.73c-1.31-1.57-2.94-2.35-4.87-2.35c-1.93,0-3.55,0.78-4.89,2.35
		C504.84,228.79,504.18,231.05,504.18,234.01"/>
	<rect x="528.06" y="240.41" class="st1" width="7.4" height="7.83"/>
	<rect x="638.58" y="240.41" class="st1" width="7.4" height="7.83"/>
	<path class="st1" d="M539.73,241.05h7.41v5.63c0,2.28-0.19,4.07-0.56,5.4c-0.37,1.31-1.06,2.49-2.09,3.54
		c-1.03,1.04-2.33,1.86-3.9,2.46l-1.42-3.23c1.47-0.53,2.53-1.25,3.16-2.18c0.62-0.91,0.96-2.17,0.99-3.77h-3.58V241.05z"/>
	<polygon class="st1" points="563.76,248.89 563.76,208.15 571.62,208.15 571.62,241.89 591.02,241.89 591.02,248.89 	"/>
	<path class="st1" d="M606.14,219.02v6.27h-5.04v12.08c0,2.45,0.05,3.87,0.15,4.28c0.1,0.41,0.32,0.74,0.68,1.01
		c0.33,0.26,0.77,0.39,1.27,0.39c0.68,0,1.69-0.25,3-0.76l0.51,6.16c-1.71,0.79-3.65,1.18-5.82,1.18c-1.34,0-2.53-0.24-3.59-0.72
		c-1.07-0.48-1.85-1.1-2.34-1.86c-0.51-0.76-0.84-1.79-1.02-3.09c-0.16-0.92-0.23-2.78-0.23-5.59v-13.07h-3.37v-6.27h3.37v-5.96
		l7.4-4.59v10.55H606.14z"/>
	<path class="st1" d="M633.82,248.89h-6.96v-4.38c-1.15,1.71-2.5,2.98-4.05,3.83c-1.56,0.85-3.13,1.28-4.72,1.28
		c-3.23,0-6.01-1.38-8.31-4.15c-2.29-2.77-3.45-6.63-3.45-11.59c0-5.06,1.13-8.91,3.38-11.54c2.25-2.64,5.09-3.95,8.53-3.95
		c3.14,0,5.87,1.38,8.17,4.15v-14.81h7.41V248.89z M613.97,233.35c0,3.19,0.41,5.49,1.25,6.91c1.22,2.06,2.91,3.09,5.09,3.09
		c1.72,0,3.2-0.77,4.42-2.32c1.2-1.54,1.81-3.86,1.81-6.93c0-3.43-0.59-5.89-1.77-7.4c-1.18-1.51-2.67-2.26-4.51-2.26
		c-1.79,0-3.28,0.75-4.48,2.24C614.56,228.17,613.97,230.4,613.97,233.35"/>
	<path class="st0" d="M612.52,9.38h-0.04h-46.8h-3.26h-99.97v0.61v23.28V59.4v3.11c-17.57-19.79-38.89-35.01-62.6-43.96
		c-15.67-5.93-32.37-9.15-49.71-9.15h-0.31v50.03v2.94c-17.57-19.72-38.82-34.88-62.48-43.81c-15.68-5.93-32.37-9.15-49.72-9.15
		h-0.3v50.03v127.86h50.03V73.94c34.16,21.18,58.48,63.49,62.24,113.34h0.23h49.95h0.07V159.8h57.94
		c2.13,8.82,3.61,18.01,4.32,27.47h0.33h49.82h0.2v-49.28V87.98V59.4h0.16v-0.01h2.19h5.7h2.18v0.01h39.74
		c-7.66,21.6-23.18,39.18-42.89,48.86v51.66c54.4-16.14,94.29-68.77,94.29-131.26C613.84,22.12,613.39,15.69,612.52,9.38
		 M399.86,119V73.94c16.82,10.43,31.25,26,42.02,45.06H399.86z"/>
	<g>
		<defs>
			<path id="SVGID_1_" d="M57.52,184.22c11.76,5.13,24.74,7.99,38.38,7.99c15.81,0,30.7-3.83,43.85-10.59
				c-14.92-1.92-27.93-6.21-39.28-12.15c-0.98,1.21-2.47,1.98-4.14,1.98c-1.86,0-3.5-0.94-4.44-2.38
				C74.89,178.82,60.81,183.25,57.52,184.22 M72.59,177.25c0.67-0.3,1.37-0.6,2.08-0.93c2.22-0.99,4.59-2.1,7.06-3.33l-16.76-12.15
				L72.59,177.25z M89.22,169.04c0.69-0.38,1.39-0.77,2.08-1.18c-0.17-0.54-0.28-1.11-0.28-1.72c0-0.69,0.15-1.35,0.39-1.97
				c-2.28-1.48-4.47-3.03-6.61-4.65L89.22,169.04z M98.78,157.3l1.88,4.79c3.31-2.17,6.67-4.56,10.04-7.14l-3.99-3.4L98.78,157.3z
				 M95.95,150.22l4.94-3.57l-9.62-8.09L95.95,150.22z M0,96.27c0,38.99,23.24,72.54,56.63,87.55l-0.19-0.7h0.04h0.04l0.28-0.07
				c0.18-0.09,0.55-0.16,0.97-0.28c0.84-0.27,2.1-0.67,3.69-1.21c1.05-0.37,2.24-0.79,3.54-1.28l-13.86-29.97l7.3-3.42l17.38,12.65
				l-6.54-14.11C28.98,101.96,23.71,35.72,23.51,33.36C8.86,50.21,0,72.21,0,96.27 M100.94,163.52c0.44,0.77,0.71,1.67,0.71,2.62
				c0,0.79-0.17,1.53-0.48,2.19c11.7,6.11,25.15,10.42,40.65,12.18c29.8-16.28,49.99-47.9,49.99-84.25
				c0-24.99-9.57-47.74-25.21-64.81C171.38,101.97,133.51,142.2,100.94,163.52 M23.58,33.29l1.27-0.03h-0.63h-0.04l0.67-0.07v0.07
				v0.03l0.04,0.32c0,0.23,0.04,0.62,0.07,1.1c0.11,1.02,0.27,2.48,0.51,4.32c0.48,3.75,1.27,9.05,2.56,15.49
				c2.56,12.9,7.11,30.19,15.04,47.88c6.16,13.73,14.35,27.66,25.22,39.92l7-3.22l8.28,17.8c2.7,2.16,5.52,4.18,8.48,6.12
				c0.01-0.02,0.02-0.04,0.02-0.05l-9.74-28.85l7.67-5.54l27.54,20.8c27.01-23.27,51.83-60.61,47.61-118.66l0.7-0.05
				C148.36,12.01,123.5,0.36,95.9,0.36C67.04,0.36,41.16,13.12,23.58,33.29"/>
		</defs>
		<clipPath id="SVGID_00000065769344479406216290000005524734232233951380_">
			<use xlink:href="#SVGID_1_"  style="overflow:visible;"/>
		</clipPath>
		
			<radialGradient id="SVGID_00000148625451240818546750000016993409543762878129_" cx="44.4851" cy="531.4916" r="6.091" gradientTransform="matrix(-23.3685 0 0 23.3685 1101.6559 -12353.8555)" gradientUnits="userSpaceOnUse">
			<stop  offset="0" style="stop-color:#FFFFFF"/>
			<stop  offset="0.0376" style="stop-color:#E4F2FA"/>
			<stop  offset="0.1424" style="stop-color:#9ED1EB"/>
			<stop  offset="0.2368" style="stop-color:#66B6E0"/>
			<stop  offset="0.3175" style="stop-color:#3EA3D8"/>
			<stop  offset="0.3812" style="stop-color:#2597D3"/>
			<stop  offset="0.42" style="stop-color:#1C93D1"/>
			<stop  offset="0.5004" style="stop-color:#1D8DCC"/>
			<stop  offset="0.6128" style="stop-color:#217AC0"/>
			<stop  offset="0.744" style="stop-color:#275DAA"/>
			<stop  offset="0.88" style="stop-color:#2E368F"/>
			<stop  offset="0.918" style="stop-color:#273B92"/>
			<stop  offset="0.9748" style="stop-color:#12489A"/>
			<stop  offset="1" style="stop-color:#07509E"/>
		</radialGradient>
		
			<rect x="0" y="0.36" style="clip-path:url(#SVGID_00000065769344479406216290000005524734232233951380_);fill:url(#SVGID_00000148625451240818546750000016993409543762878129_);" width="191.81" height="191.85"/>
	</g>
	<path class="st3" d="M56.45,183.12h0.04h0.03l0.29-0.07c0.19-0.09,0.54-0.16,0.97-0.28c0.84-0.27,2.09-0.67,3.69-1.21
		c1.05-0.37,2.24-0.79,3.54-1.28l0.43,0.92l7.39-3.42l-0.24-0.52c0.68-0.3,1.38-0.61,2.1-0.93c2.21-0.98,4.58-2.1,7.05-3.33
		l0.54,0.39l7.38-3.42l-0.42-0.92c0.69-0.38,1.38-0.77,2.08-1.18c0.15,0.43,0.35,0.83,0.59,1.21
		c-19.47,11.17-35.09,15.36-35.09,15.36L56.45,183.12 M100.55,162.94l0.34-0.26l-0.23-0.58c3.31-2.17,6.67-4.56,10.04-7.14l0.4,0.35
		l7.32-5.27l-0.86-0.66c27.02-23.27,51.83-60.61,47.61-118.66l1.36-0.09c5.16,71.04-32.9,111.5-65.59,132.9
		C100.82,163.32,100.68,163.12,100.55,162.94"/>
	<path class="st3" d="M100.47,169.46c0.28-0.34,0.51-0.72,0.69-1.13c11.71,6.12,25.22,10.44,40.77,12.19l-0.13,1.34
		C126.04,180.07,112.35,175.67,100.47,169.46 M84.81,159.53l-1.22-2.63c2.7,2.15,5.52,4.18,8.48,6.12
		c-0.26,0.35-0.49,0.74-0.65,1.16C89.14,162.7,86.94,161.14,84.81,159.53 M23.5,33.29l1.35-0.03v0.03l0.04,0.32
		c0,0.24,0.04,0.63,0.07,1.1c0.11,1.02,0.27,2.49,0.51,4.32c0.48,3.74,1.27,9.05,2.56,15.49c2.55,12.89,7.1,30.19,15.04,47.88
		c6.16,13.72,14.35,27.65,25.22,39.92l-0.38,0.16l1.38,2.95C28.24,101.17,23.53,33.32,23.5,33.29 M24.21,33.26h-0.04l0.67-0.08v0.08
		H24.21 M24.85,33.26L24.85,33.26"/>
	<path class="st4" d="M61.82,6.67c0,0,12.16,113.27,121.02,131.71"/>
	<path class="st4" d="M13.12,144.67c0,0,118.05-13.29,120.63-135.79"/>
	<path class="st3" d="M109.41,96.4c0,2.94-2.39,5.31-5.31,5.31c-2.94,0-5.31-2.37-5.31-5.31c0-2.94,2.38-5.32,5.31-5.32
		C107.01,91.08,109.41,93.46,109.41,96.4"/>
	<path class="st3" d="M62.55,129.98c0,2.93-2.39,5.31-5.31,5.31c-2.93,0-5.32-2.38-5.32-5.31c0-2.93,2.39-5.31,5.32-5.31
		C60.16,124.67,62.55,127.05,62.55,129.98"/>
	<path class="st3" d="M91.03,166.14c0-1.19,0.39-2.3,1.06-3.18l1.65,4.87l6.81-4.9c0.68,0.9,1.1,2.01,1.1,3.2
		c0,2.94-2.39,5.31-5.31,5.31C93.38,171.45,91.03,169.08,91.03,166.14"/>
	<path class="st3" d="M147.04,125.19c0,2.92-2.38,5.29-5.32,5.29c-2.92,0-5.3-2.37-5.3-5.29c0-2.94,2.38-5.33,5.3-5.33
		C144.65,119.86,147.04,122.25,147.04,125.19"/>
	<polygon class="st3" points="71.09,69.12 71.09,69.12 61.31,57.41 71.09,45.73 71.09,45.73 59.39,55.49 47.7,45.73 57.45,57.41 
		47.7,69.12 59.39,59.34 	"/>
	<polygon class="st3" points="60.99,55.81 59.39,29.86 59.39,29.85 57.8,55.83 33.98,57.41 57.84,58.99 59.39,85.04 60.97,59 
		84.98,57.41 	"/>
	<polygon class="st3" points="51.14,150.3 58.44,146.89 75.83,159.54 67.92,142.48 75.3,139.1 89.65,169.96 82.27,173.38 
		64.97,160.84 72.83,177.77 65.44,181.2 	"/>
	<path class="st3" d="M82.34,134.11l7.66-5.55l28.41,21.47l-7.31,5.26l-4.39-3.74l-7.93,5.75l2.11,5.38l-7.15,5.15L82.34,134.11z
		 M95.95,150.22l4.95-3.57l-9.64-8.1L95.95,150.22"/>
	<path class="st3" d="M96.82,123.46l9.58-10.72c2.06-2.32,4.32-3.47,6.7-3.43c2.39,0.05,4.83,1.19,7.31,3.4
		c2.56,2.28,4.01,4.72,4.31,7.27c0.32,2.56-0.69,5.15-3.02,7.72l-3.17,3.56l9.45,8.44l-5.76,6.44L96.82,123.46z M113.41,126.69
		l1.42-1.6c1.13-1.27,1.66-2.38,1.58-3.35c-0.06-0.97-0.51-1.82-1.33-2.55c-0.78-0.71-1.66-1.08-2.61-1.13
		c-0.94-0.04-1.96,0.53-3.03,1.74l-1.66,1.86L113.41,126.69z"/>
</g>
</svg>
