<svg width="18" height="18" viewBox="0 0 18 18" fill="none" xmlns="http://www.w3.org/2000/svg">
<path d="M9.96875 1.03125V7.90625H16.8438C17.4023 7.90625 17.875 8.37891 17.875 8.9375C17.875 9.53906 17.4023 9.96875 16.8438 9.96875H9.96875V16.8438C9.96875 17.4453 9.49609 17.875 8.9375 17.875C8.33594 17.875 7.90625 17.4453 7.90625 16.8438V9.96875H1.03125C0.429688 9.96875 0 9.53906 0 8.9375C0 8.37891 0.429688 7.90625 1.03125 7.90625H7.90625V1.03125C7.90625 0.472656 8.33594 0 8.9375 0C9.49609 0 9.96875 0.472656 9.96875 1.03125Z" fill="black"/>
</svg>
